<?xml version="1.0" standalone="no"?>
<!DOCTYPE svg PUBLIC "-//W3C//DTD SVG 20010904//EN"
 "http://www.w3.org/TR/2001/REC-SVG-20010904/DTD/svg10.dtd">
<svg version="1.0" xmlns="http://www.w3.org/2000/svg"
 width="200.000000pt" height="134.000000pt" viewBox="0 0 200.000000 134.000000"
 preserveAspectRatio="xMidYMid meet">

<g transform="translate(0.000000,134.000000) scale(0.100000,-0.100000)"
fill="#000000" stroke="none">
<path d="M768 1063 c-27 -2 -48 -6 -48 -8 0 -2 10 -29 22 -59 l21 -57 106 2
c105 1 217 -16 302 -46 23 -9 44 -14 46 -11 7 6 -110 46 -177 60 l-65 13 49 6
c27 4 63 7 80 7 l31 0 -45 27 c-25 14 -58 37 -73 50 -26 21 -38 23 -115 21
-48 -1 -108 -3 -134 -5z"/>
<path d="M563 1040 c-59 -36 -35 -67 72 -94 82 -22 113 -9 85 34 -9 13 -10 13
-11 0 -1 -8 -1 -20 0 -25 1 -8 -16 -8 -53 -1 -30 6 -52 14 -49 19 9 14 -19 27
-44 20 -13 -3 -23 -1 -23 4 0 15 36 44 43 36 4 -3 7 -1 7 5 0 6 19 13 43 15
l42 4 -40 1 c-25 1 -52 -6 -72 -18z"/>
<path d="M417 903 c-8 -14 -4 -143 4 -143 5 0 6 -7 3 -15 -10 -26 14 -42 76
-49 70 -8 268 -101 309 -145 23 -24 37 -29 104 -35 44 -5 83 -14 91 -22 34
-33 396 0 490 45 31 15 46 29 46 42 0 10 4 19 10 19 5 0 9 3 9 8 -3 19 2 32
14 32 8 0 13 17 14 50 0 28 -1 50 -4 50 -3 0 -20 -9 -38 -20 -21 -13 -36 -33
-44 -60 -6 -22 -16 -40 -21 -40 -4 0 -16 -3 -25 -6 -15 -6 -16 -1 -10 38 l7
45 -109 6 c-112 6 -163 -6 -77 -18 27 -4 52 -9 56 -12 8 -4 -19 -81 -33 -97
-11 -12 11 66 22 80 6 8 -9 13 -52 18 -139 14 -176 5 -203 -50 -19 -41 -20
-66 -4 -82 15 -15 8 -15 -46 -1 -43 11 -43 11 -43 52 3 152 -102 290 -166 219
-10 -10 -17 -24 -17 -30 0 -22 -20 -21 -126 3 -60 13 -110 22 -113 20 -6 -6
-10 -4 86 -50 46 -21 81 -40 80 -42 -2 -1 -43 13 -92 33 -49 19 -97 36 -106
37 -12 1 -21 12 -25 32 -14 69 -50 116 -67 88z m440 -109 c-3 -3 -12 -4 -19
-1 -8 3 -5 6 6 6 11 1 17 -2 13 -5z m-59 -34 c-7 -10 -14 -17 -17 -15 -4 4 18
35 25 35 2 0 -1 -9 -8 -20z m-258 -15 c27 -15 20 -19 -17 -9 -13 4 -23 10 -23
15 0 12 11 11 40 -6z m291 -38 c-10 -9 -11 -8 -5 6 3 10 9 15 12 12 3 -3 0
-11 -7 -18z m-150 -13 c67 -27 87 -40 77 -50 -6 -5 -62 20 -121 56 -43 26 -33
25 44 -6z m107 -16 c1 -18 5 -41 8 -50 7 -22 -12 -24 -20 -2 -9 23 -7 84 2 84
4 0 9 -15 10 -32z m99 -3 c0 -8 -6 -16 -14 -19 -8 -3 -13 2 -13 14 0 11 6 20
13 20 8 0 14 -7 14 -15z m-62 -13 c-3 -3 -11 0 -18 7 -9 10 -8 11 6 5 10 -3
15 -9 12 -12z m101 -98 c-30 -21 -44 -16 -17 7 13 11 27 17 30 13 3 -3 -3 -12
-13 -20z m222 -31 c-10 -2 -26 -2 -35 0 -10 3 -2 5 17 5 19 0 27 -2 18 -5z
m80 0 c-10 -2 -28 -2 -40 0 -13 2 -5 4 17 4 22 1 32 -1 23 -4z"/>
<path d="M481 874 c0 -11 3 -14 6 -6 3 7 2 16 -1 19 -3 4 -6 -2 -5 -13z"/>
<path d="M1345 850 l-70 -6 65 -2 c36 0 74 3 85 8 22 9 22 9 -80 0z"/>
<path d="M1524 836 c-3 -8 -11 -13 -18 -10 -7 3 -25 0 -40 -6 -15 -5 -106 -11
-202 -11 -137 -1 -174 -4 -174 -14 0 -17 -29 -13 -41 6 -14 23 -10 1 6 -30 19
-37 42 -41 229 -41 141 0 155 2 206 26 62 29 69 36 62 70 -5 27 -20 32 -28 10z"/>
<path d="M960 751 c0 -5 7 -11 15 -15 8 -3 15 -1 15 3 0 5 -7 11 -15 15 -8 3
-15 1 -15 -3z"/>
<path d="M1068 311 c-13 -11 -33 -38 -43 -60 -10 -23 -21 -41 -25 -41 -3 0
-14 16 -23 35 -14 30 -22 35 -50 35 -43 0 -77 -33 -60 -58 13 -22 37 -22 41 1
2 10 -3 17 -13 17 -9 0 -13 5 -10 10 3 6 13 10 21 10 10 0 14 -13 14 -47 0
-85 -5 -92 -61 -89 -68 4 -82 20 -45 50 34 26 30 56 -7 56 -53 0 -87 -79 -49
-113 21 -19 63 -22 79 -6 8 8 13 8 17 0 9 -13 46 -14 65 -2 8 5 17 29 21 53
l6 43 17 -32 c22 -41 29 -41 49 -1 l15 33 7 -48 c7 -48 23 -64 51 -54 11 5 12
13 5 34 -4 15 -11 57 -13 92 -5 56 -3 64 14 68 20 6 25 18 10 27 -5 3 -20 -3
-33 -13z m-263 -110 c3 -5 1 -12 -5 -16 -5 -3 -10 1 -10 9 0 18 6 21 15 7z"/>
<path d="M273 281 c-13 -3 -31 -14 -42 -23 -26 -22 -17 -60 12 -56 24 4 36 28
13 28 -21 0 -21 16 0 24 9 3 17 6 19 6 2 0 5 -35 7 -77 3 -72 5 -78 26 -81 21
-3 22 -1 22 77 0 80 0 81 25 81 31 0 33 20 3 21 -13 1 -32 2 -43 4 -11 1 -30
-1 -42 -4z"/>
<path d="M617 283 c-13 -12 -7 -22 8 -17 14 6 45 -11 45 -25 0 -3 -13 -12 -30
-19 -27 -12 -30 -18 -30 -57 0 -34 5 -47 19 -55 57 -30 96 10 89 90 -3 28 -13
59 -23 70 -17 19 -64 27 -78 13z m61 -124 c-2 -19 -7 -33 -13 -32 -12 3 -19
49 -10 71 10 26 27 -2 23 -39z"/>
<path d="M1294 280 c-44 -10 -54 -18 -54 -45 0 -29 16 -41 35 -25 12 10 14 2
17 -47 3 -51 6 -58 25 -61 19 -3 22 2 25 35 l3 38 27 -52 c28 -53 55 -71 84
-55 15 8 15 10 1 15 -24 9 -71 107 -58 120 14 14 14 54 0 63 -22 13 -74 20
-105 14z m-4 -35 c0 -9 -6 -12 -15 -9 -8 4 -12 10 -9 15 8 14 24 10 24 -6z
m70 -15 c0 -16 -4 -30 -10 -30 -5 0 -10 14 -10 30 0 17 5 30 10 30 6 0 10 -13
10 -30z"/>
<path d="M1537 283 c-13 -12 -7 -22 8 -17 15 6 45 -11 45 -25 0 -4 -13 -12
-30 -18 -36 -14 -49 -55 -29 -92 32 -56 109 -26 109 43 0 46 -18 94 -40 106
-21 11 -54 13 -63 3z m56 -92 c6 -25 -3 -71 -14 -71 -5 0 -9 20 -9 45 0 45 13
61 23 26z"/>
<path d="M1453 250 c3 -11 2 -22 -2 -24 -3 -2 -4 -31 -1 -63 4 -50 8 -58 25
-58 17 0 20 8 23 49 2 27 0 56 -4 65 -4 9 -6 24 -5 34 2 11 -5 17 -20 17 -16
0 -20 -5 -16 -20z"/>
<path d="M368 219 c-10 -6 -10 -9 0 -9 8 0 12 -18 12 -55 0 -48 3 -55 19 -55
17 0 20 8 23 48 2 38 6 47 21 46 10 -1 17 5 17 15 0 12 -10 17 -39 17 -21 1
-45 -2 -53 -7z"/>
<path d="M490 215 c-10 -12 -10 -19 -2 -27 9 -9 8 -16 -5 -30 -28 -31 -6 -53
53 -53 l48 0 -3 50 c-1 28 -7 56 -13 63 -15 17 -63 15 -78 -3z m40 -20 c0 -8
-4 -15 -8 -15 -5 0 -9 7 -9 15 0 8 4 15 9 15 4 0 8 -7 8 -15z m-3 -67 c-3 -7
-5 -2 -5 12 0 14 2 19 5 13 2 -7 2 -19 0 -25z"/>
<path d="M1106 221 c-3 -5 0 -14 8 -20 18 -15 40 -96 32 -117 -4 -11 -13 -14
-31 -10 -18 5 -25 2 -25 -8 0 -18 20 -25 45 -16 49 19 97 105 87 156 -7 36
-22 29 -22 -10 0 -44 -16 -55 -25 -18 -4 15 -11 33 -17 39 -12 15 -44 17 -52
4z"/>
<path d="M1680 210 c-24 -24 -26 -72 -4 -94 20 -20 68 -21 85 0 11 13 9 14
-14 9 -41 -11 -48 21 -12 49 19 15 26 28 22 39 -9 23 -53 21 -77 -3z m40 -15
c0 -8 -4 -15 -10 -15 -5 0 -7 7 -4 15 4 8 8 15 10 15 2 0 4 -7 4 -15z"/>
</g>
</svg>
